<mxfile host="app.diagrams.net" modified="2023-08-02T12:32:15.179Z" agent="Mozilla/5.0 (Windows NT 10.0; Win64; x64) AppleWebKit/537.36 (KHTML, like Gecko) Chrome/115.0.0.0 Safari/537.36" etag="0Mr5_WfY-mg5cNldCB3a" version="21.6.6" type="device">
  <diagram name="‫עמוד-1‬" id="MRAZHqBUVUqw6QirdJdo">
    <mxGraphModel dx="1434" dy="758" grid="1" gridSize="10" guides="1" tooltips="1" connect="1" arrows="1" fold="1" page="1" pageScale="1" pageWidth="827" pageHeight="1169" math="0" shadow="0">
      <root>
        <mxCell id="0" />
        <mxCell id="1" parent="0" />
        <mxCell id="XxnXL9t4_n4hK2MDDIIK-3" value="" style="edgeStyle=orthogonalEdgeStyle;rounded=0;orthogonalLoop=1;jettySize=auto;html=1;" edge="1" parent="1" source="XxnXL9t4_n4hK2MDDIIK-1" target="XxnXL9t4_n4hK2MDDIIK-2">
          <mxGeometry relative="1" as="geometry" />
        </mxCell>
        <mxCell id="XxnXL9t4_n4hK2MDDIIK-1" value="stert" style="rounded=1;whiteSpace=wrap;html=1;" vertex="1" parent="1">
          <mxGeometry x="280" y="120" width="120" height="60" as="geometry" />
        </mxCell>
        <mxCell id="XxnXL9t4_n4hK2MDDIIK-5" value="" style="edgeStyle=orthogonalEdgeStyle;rounded=0;orthogonalLoop=1;jettySize=auto;html=1;" edge="1" parent="1" source="XxnXL9t4_n4hK2MDDIIK-2">
          <mxGeometry relative="1" as="geometry">
            <mxPoint x="340" y="360" as="targetPoint" />
          </mxGeometry>
        </mxCell>
        <mxCell id="XxnXL9t4_n4hK2MDDIIK-2" value="a" style="shape=card;whiteSpace=wrap;html=1;" vertex="1" parent="1">
          <mxGeometry x="280" y="230" width="120" height="60" as="geometry" />
        </mxCell>
        <mxCell id="XxnXL9t4_n4hK2MDDIIK-9" value="" style="edgeStyle=orthogonalEdgeStyle;rounded=0;orthogonalLoop=1;jettySize=auto;html=1;" edge="1" parent="1" source="XxnXL9t4_n4hK2MDDIIK-7" target="XxnXL9t4_n4hK2MDDIIK-8">
          <mxGeometry relative="1" as="geometry" />
        </mxCell>
        <mxCell id="XxnXL9t4_n4hK2MDDIIK-10" value="yes" style="edgeLabel;html=1;align=center;verticalAlign=middle;resizable=0;points=[];" vertex="1" connectable="0" parent="XxnXL9t4_n4hK2MDDIIK-9">
          <mxGeometry x="-0.0588" y="2" relative="1" as="geometry">
            <mxPoint as="offset" />
          </mxGeometry>
        </mxCell>
        <mxCell id="XxnXL9t4_n4hK2MDDIIK-12" value="" style="edgeStyle=orthogonalEdgeStyle;rounded=0;orthogonalLoop=1;jettySize=auto;html=1;" edge="1" parent="1" source="XxnXL9t4_n4hK2MDDIIK-7" target="XxnXL9t4_n4hK2MDDIIK-11">
          <mxGeometry relative="1" as="geometry" />
        </mxCell>
        <mxCell id="XxnXL9t4_n4hK2MDDIIK-14" value="no" style="edgeLabel;html=1;align=center;verticalAlign=middle;resizable=0;points=[];" vertex="1" connectable="0" parent="XxnXL9t4_n4hK2MDDIIK-12">
          <mxGeometry x="-0.15" y="-1" relative="1" as="geometry">
            <mxPoint as="offset" />
          </mxGeometry>
        </mxCell>
        <mxCell id="XxnXL9t4_n4hK2MDDIIK-7" value="a % 2 == 0" style="rhombus;whiteSpace=wrap;html=1;" vertex="1" parent="1">
          <mxGeometry x="280" y="360" width="120" height="90" as="geometry" />
        </mxCell>
        <mxCell id="XxnXL9t4_n4hK2MDDIIK-8" value="&quot;the number is even" style="shape=document;whiteSpace=wrap;html=1;boundedLbl=1;" vertex="1" parent="1">
          <mxGeometry x="280" y="535" width="120" height="80" as="geometry" />
        </mxCell>
        <mxCell id="XxnXL9t4_n4hK2MDDIIK-11" value="&quot;the number is odd" style="shape=document;whiteSpace=wrap;html=1;boundedLbl=1;" vertex="1" parent="1">
          <mxGeometry x="480" y="365" width="120" height="80" as="geometry" />
        </mxCell>
      </root>
    </mxGraphModel>
  </diagram>
</mxfile>
